<?xml version="1.0" encoding="UTF-8" standalone="no"?>
<!DOCTYPE svg PUBLIC "-//W3C//DTD SVG 1.1//EN" "http://www.w3.org/Graphics/SVG/1.1/DTD/svg11.dtd">
<svg width="100%" height="100%" viewBox="0 0 1217 316" version="1.1" xmlns="http://www.w3.org/2000/svg" xmlns:xlink="http://www.w3.org/1999/xlink" xml:space="preserve" xmlns:serif="http://www.serif.com/" style="fill-rule:evenodd;clip-rule:evenodd;stroke-linejoin:round;stroke-miterlimit:1.41421;">
    <g transform="matrix(3.42591,0,0,3.42591,-259.136,-256.012)">
        <g transform="matrix(1,0,0,1,0,-57.343)">
            <rect x="213.664" y="132.074" width="6.984" height="36.975" style="fill:rgb(35,31,32);"/>
        </g>
        <g transform="matrix(1,0,0,1,228.13,112.704)">
            <path d="M0,-37.973L6.984,-37.973L6.984,-15.854C6.984,-14.45 7.123,-13.184 7.4,-12.057C7.678,-10.93 8.129,-9.969 8.758,-9.174C9.387,-8.379 10.217,-7.77 11.252,-7.346C12.287,-6.92 13.563,-6.707 15.078,-6.707C16.592,-6.707 17.867,-6.92 18.902,-7.346C19.938,-7.77 20.768,-8.379 21.396,-9.174C22.025,-9.969 22.479,-10.93 22.756,-12.057C23.033,-13.184 23.172,-14.45 23.172,-15.854L23.172,-37.973L30.156,-37.973L30.156,-14.635C30.156,-12.565 29.822,-10.643 29.158,-8.869C28.492,-7.096 27.514,-5.553 26.221,-4.241C24.926,-2.928 23.346,-1.895 21.48,-1.137C19.613,-0.379 17.479,0 15.078,0C12.676,0 10.541,-0.379 8.676,-1.137C6.809,-1.895 5.229,-2.928 3.936,-4.241C2.641,-5.553 1.662,-7.096 0.998,-8.869C0.332,-10.643 0,-12.565 0,-14.635L0,-37.973Z" style="fill:rgb(35,31,32);fill-rule:nonzero;"/>
        </g>
        <g transform="matrix(1,0,0,1,275.693,105.551)">
            <path d="M0,-24.666L-12.527,-24.666L-12.527,-30.82L19.514,-30.82L19.514,-24.666L6.984,-24.666L6.984,6.154L0,6.154L0,-24.666Z" style="fill:rgb(35,31,32);fill-rule:nonzero;"/>
        </g>
        <g transform="matrix(1,0,0,1,310.394,111.706)">
            <path d="M0,-36.975L6.984,-36.975L6.984,-6.209L25.223,-6.209L25.223,0L0,0L0,-36.975Z" style="fill:rgb(35,31,32);fill-rule:nonzero;"/>
        </g>
        <g transform="matrix(1,0,0,1,355.738,97.4043)">
            <path d="M0,2.549C-0.666,2.512 -1.313,2.475 -1.939,2.438C-2.459,2.403 -3.004,2.373 -3.576,2.356C-4.148,2.336 -4.639,2.326 -5.045,2.326C-7.15,2.326 -8.629,2.742 -9.479,3.574C-10.33,4.406 -10.754,5.358 -10.754,6.43C-10.754,7.537 -10.357,8.406 -9.563,9.035C-8.768,9.664 -7.594,9.977 -6.043,9.977C-5.266,9.977 -4.518,9.848 -3.797,9.59C-3.076,9.33 -2.439,8.979 -1.885,8.535C-1.33,8.092 -0.879,7.574 -0.527,6.985C-0.176,6.393 0,5.764 0,5.1L0,2.549ZM0,11.862C-0.703,12.713 -1.773,13.469 -3.215,14.135C-4.656,14.799 -6.264,15.133 -8.037,15.133C-9.109,15.133 -10.172,14.967 -11.225,14.633C-12.279,14.301 -13.24,13.793 -14.107,13.11C-14.977,12.426 -15.68,11.549 -16.215,10.477C-16.75,9.404 -17.018,8.149 -17.018,6.707C-17.018,5.229 -16.74,3.906 -16.188,2.742C-15.633,1.578 -14.855,0.6 -13.859,-0.195C-12.861,-0.99 -11.66,-1.59 -10.256,-1.996C-8.852,-2.402 -7.299,-2.607 -5.6,-2.607C-5.082,-2.607 -4.51,-2.597 -3.881,-2.578C-3.252,-2.56 -2.643,-2.531 -2.051,-2.496C-1.387,-2.459 -0.703,-2.422 0,-2.385L0,-2.994C0,-4.287 -0.518,-5.303 -1.553,-6.043C-2.588,-6.781 -3.936,-7.152 -5.6,-7.152C-7.447,-7.152 -8.926,-6.912 -10.033,-6.431C-11.143,-5.951 -12.121,-5.433 -12.971,-4.879L-15.965,-9.314C-15.447,-9.683 -14.855,-10.062 -14.191,-10.451C-13.525,-10.838 -12.75,-11.189 -11.863,-11.504C-10.977,-11.816 -9.951,-12.076 -8.787,-12.279C-7.623,-12.482 -6.264,-12.584 -4.711,-12.584C-3.049,-12.584 -1.543,-12.353 -0.193,-11.89C1.154,-11.43 2.309,-10.783 3.271,-9.951C4.23,-9.119 4.971,-8.123 5.488,-6.957C6.006,-5.793 6.264,-4.527 6.264,-3.16L6.264,14.301L0.166,14.301L0,11.862Z" style="fill:rgb(35,31,32);fill-rule:nonzero;"/>
        </g>
        <g transform="matrix(1,0,0,1,364.607,111.705)">
            <path d="M0,-25.998L7.539,-25.998L14.523,-7.373L21.508,-25.998L28.658,-25.998L17.684,0L11.031,0L0,-25.998Z" style="fill:rgb(35,31,32);fill-rule:nonzero;"/>
        </g>
        <g transform="matrix(1,0,0,1,411.615,97.4043)">
            <path d="M0,2.549C-0.666,2.512 -1.313,2.475 -1.939,2.438C-2.459,2.403 -3.004,2.373 -3.576,2.356C-4.148,2.336 -4.639,2.326 -5.045,2.326C-7.15,2.326 -8.629,2.742 -9.479,3.574C-10.33,4.406 -10.754,5.358 -10.754,6.43C-10.754,7.537 -10.357,8.406 -9.563,9.035C-8.768,9.664 -7.594,9.977 -6.043,9.977C-5.266,9.977 -4.518,9.848 -3.797,9.59C-3.076,9.33 -2.439,8.979 -1.885,8.535C-1.33,8.092 -0.879,7.574 -0.527,6.985C-0.176,6.393 0,5.764 0,5.1L0,2.549ZM0,11.862C-0.703,12.713 -1.773,13.469 -3.215,14.135C-4.656,14.799 -6.264,15.133 -8.037,15.133C-9.109,15.133 -10.172,14.967 -11.225,14.633C-12.279,14.301 -13.24,13.793 -14.107,13.11C-14.977,12.426 -15.68,11.549 -16.215,10.477C-16.75,9.404 -17.018,8.149 -17.018,6.707C-17.018,5.229 -16.74,3.906 -16.188,2.742C-15.633,1.578 -14.855,0.6 -13.859,-0.195C-12.861,-0.99 -11.66,-1.59 -10.256,-1.996C-8.852,-2.402 -7.299,-2.607 -5.6,-2.607C-5.082,-2.607 -4.51,-2.597 -3.881,-2.578C-3.252,-2.56 -2.643,-2.531 -2.051,-2.496C-1.387,-2.459 -0.703,-2.422 0,-2.385L0,-2.994C0,-4.287 -0.518,-5.303 -1.553,-6.043C-2.588,-6.781 -3.936,-7.152 -5.6,-7.152C-7.447,-7.152 -8.926,-6.912 -10.033,-6.431C-11.143,-5.951 -12.121,-5.433 -12.971,-4.879L-15.965,-9.314C-15.447,-9.683 -14.855,-10.062 -14.191,-10.451C-13.525,-10.838 -12.75,-11.189 -11.863,-11.504C-10.977,-11.816 -9.951,-12.076 -8.787,-12.279C-7.623,-12.482 -6.264,-12.584 -4.711,-12.584C-3.049,-12.584 -1.543,-12.353 -0.193,-11.89C1.154,-11.43 2.309,-10.783 3.271,-9.951C4.23,-9.119 4.971,-8.123 5.488,-6.957C6.006,-5.793 6.264,-4.527 6.264,-3.16L6.264,14.301L0.166,14.301L0,11.862Z" style="fill:rgb(35,31,32);fill-rule:nonzero;"/>
        </g>
        <g transform="matrix(1,0,0,1,0,-57.343)">
            <rect x="424.197" y="132.074" width="6.541" height="36.975" style="fill:rgb(35,31,32);"/>
        </g>
        <g transform="matrix(-1,-0,0,1,362.329,-2.349)">
            <rect x="178.519" y="77.077" width="5.291" height="91.975" style="fill:rgb(35,31,32);"/>
        </g>
        <g transform="matrix(1,0,0,1,151.277,112.662)">
            <path d="M0,16.207C0.029,37.076 -16.863,54.014 -37.73,54.041C-58.598,54.072 -75.535,37.178 -75.564,16.312L-75.637,-37.865L-0.072,-37.865L0,16.207Z" style="fill:rgb(35,31,32);fill-rule:nonzero;"/>
        </g>
        <g transform="matrix(1,0,0,1,128.554,151.58)">
            <path d="M0,-29.107L-7.535,-29.107C-7.543,-29.107 -7.549,-29.111 -7.553,-29.107L-15.061,-18.136C-15.07,-18.125 -15.088,-18.125 -15.098,-18.136L-22.635,-29.107C-22.639,-29.111 -22.646,-29.107 -22.652,-29.107L-30.186,-29.107C-30.197,-29.107 -30.207,-29.117 -30.207,-29.107L-34.605,-0.005C-34.607,0.01 -34.596,-0.005 -34.582,-0.005L-27.451,-0.005C-27.439,-0.005 -27.43,0.006 -27.428,-0.005L-24.441,-19.732C-24.439,-19.752 -24.414,-19.761 -24.4,-19.744L-15.682,-7.394C-15.551,-7.214 -15.332,-7.099 -15.07,-7.099C-14.744,-7.099 -14.559,-7.271 -14.398,-7.466L-5.793,-19.73C-5.779,-19.744 -5.754,-19.738 -5.75,-19.718L-5.074,-15.568L-2.682,-0.005C-2.68,0.006 -2.67,-0.005 -2.658,-0.005L4.475,-0.005C4.488,-0.005 4.5,0.01 4.498,-0.005L0.023,-29.107C0.021,-29.117 0.012,-29.107 0,-29.107" style="fill:white;fill-rule:nonzero;"/>
        </g>
        <g transform="matrix(1,0,0,1,119.099,94.6198)">
            <path d="M0,13.107C-0.004,13.113 -0.004,13.119 -0.004,13.125L1.242,21.234C1.244,21.246 1.254,21.234 1.266,21.234L8.396,21.234C8.412,21.234 8.424,21.248 8.42,21.234L7.443,14.863L7.586,14.648L15.023,3.234L15.023,-8.141L8.477,-8.141L6.049,-4.401L-0.314,-4.401L-2.746,-8.141L-2.752,-8.141L-8.52,-8.141L-8.58,-8.141L-11.021,-4.401L-17.357,-4.401L-19.803,-8.141L-26.344,-8.141L-26.344,3.285L-18.756,14.851C-18.752,14.855 -18.75,14.861 -18.752,14.867L-19.715,21.234C-19.717,21.248 -19.709,21.234 -19.691,21.234L-12.561,21.234C-12.549,21.234 -12.541,21.246 -12.537,21.234L-11.309,13.099C-11.307,13.093 -11.309,13.087 -11.311,13.084L-18.006,2.793L6.693,2.793L0,13.107Z" style="fill:white;fill-rule:nonzero;"/>
        </g>
        <g transform="matrix(1,0,0,1,213.767,143.705)">
            <path d="M0,-14.734L2.783,-14.734L2.783,-2.474L10.051,-2.474L10.051,0L0,0L0,-14.734Z" style="fill:rgb(35,31,32);fill-rule:nonzero;"/>
        </g>
        <g transform="matrix(1,0,0,1,232.919,139.618)">
            <path d="M0,-2.186C0,-2.452 -0.051,-2.717 -0.154,-2.981C-0.258,-3.247 -0.408,-3.487 -0.607,-3.7C-0.807,-3.913 -1.061,-4.09 -1.369,-4.229C-1.678,-4.37 -2.031,-4.44 -2.43,-4.44C-2.857,-4.44 -3.236,-4.37 -3.566,-4.229C-3.898,-4.09 -4.174,-3.913 -4.396,-3.7C-4.617,-3.487 -4.785,-3.247 -4.904,-2.981C-5.021,-2.717 -5.08,-2.452 -5.08,-2.186L0,-2.186ZM2.541,2.585L2.176,2.951C1.979,3.148 1.689,3.359 1.314,3.58C0.939,3.8 0.461,4 -0.121,4.175C-0.703,4.353 -1.398,4.441 -2.209,4.441C-3.033,4.441 -3.785,4.3 -4.461,4.021C-5.139,3.742 -5.717,3.355 -6.195,2.861C-6.674,2.369 -7.043,1.775 -7.301,1.084C-7.559,0.39 -7.688,-0.375 -7.688,-1.215C-7.688,-1.979 -7.559,-2.69 -7.301,-3.346C-7.043,-4 -6.682,-4.573 -6.219,-5.059C-5.754,-5.543 -5.201,-5.926 -4.561,-6.207C-3.92,-6.487 -3.211,-6.627 -2.43,-6.627C-1.486,-6.627 -0.688,-6.454 -0.033,-6.108C0.623,-5.762 1.148,-5.309 1.547,-4.749C1.945,-4.19 2.232,-3.555 2.408,-2.848C2.586,-2.143 2.674,-1.42 2.674,-0.684L2.674,-0.309L-5.059,-0.309C-5.059,0.074 -4.975,0.419 -4.805,0.73C-4.635,1.039 -4.414,1.304 -4.141,1.525C-3.869,1.746 -3.561,1.916 -3.213,2.033C-2.867,2.152 -2.525,2.21 -2.188,2.21C-1.686,2.21 -1.248,2.162 -0.873,2.066C-0.496,1.97 -0.176,1.861 0.088,1.734C0.354,1.609 0.57,1.478 0.74,1.337C0.91,1.197 1.039,1.084 1.127,0.996L2.541,2.585Z" style="fill:rgb(35,31,32);fill-rule:nonzero;"/>
        </g>
        <g transform="matrix(1,0,0,1,242.396,143.705)">
            <path d="M0,-14.734L2.586,-14.734L6.672,-7.775L10.691,-14.734L13.277,-14.734L13.984,0L11.268,0L10.781,-10.205L7.246,-4.197L5.943,-4.197L2.387,-10.05L1.9,0L-0.707,0L0,-14.734Z" style="fill:rgb(35,31,32);fill-rule:nonzero;"/>
        </g>
        <g transform="matrix(1,0,0,1,265.15,138.007)">
            <path d="M0,1.015C-0.266,1.001 -0.523,0.986 -0.773,0.972C-0.98,0.956 -1.197,0.945 -1.426,0.939C-1.654,0.931 -1.848,0.927 -2.01,0.927C-2.85,0.927 -3.439,1.093 -3.777,1.423C-4.117,1.755 -4.285,2.134 -4.285,2.562C-4.285,3.003 -4.127,3.349 -3.811,3.601C-3.494,3.851 -3.027,3.976 -2.408,3.976C-2.098,3.976 -1.801,3.923 -1.514,3.822C-1.227,3.718 -0.973,3.578 -0.752,3.402C-0.529,3.224 -0.35,3.019 -0.209,2.783C-0.07,2.546 0,2.296 0,2.031L0,1.015ZM0,4.726C-0.279,5.066 -0.707,5.367 -1.281,5.632C-1.855,5.898 -2.496,6.031 -3.203,6.031C-3.631,6.031 -4.053,5.964 -4.473,5.831C-4.893,5.699 -5.275,5.495 -5.623,5.224C-5.969,4.951 -6.248,4.601 -6.461,4.175C-6.676,3.747 -6.781,3.247 -6.781,2.671C-6.781,2.083 -6.672,1.556 -6.451,1.093C-6.23,0.628 -5.92,0.24 -5.523,-0.079C-5.125,-0.395 -4.646,-0.633 -4.086,-0.796C-3.527,-0.958 -2.908,-1.04 -2.23,-1.04C-2.025,-1.04 -1.797,-1.036 -1.547,-1.028C-1.297,-1.02 -1.053,-1.01 -0.816,-0.995C-0.553,-0.979 -0.279,-0.965 0,-0.95L0,-1.194C0,-1.71 -0.207,-2.114 -0.619,-2.409C-1.031,-2.704 -1.568,-2.85 -2.23,-2.85C-2.967,-2.85 -3.557,-2.755 -3.998,-2.563C-4.439,-2.372 -4.83,-2.167 -5.17,-1.944L-6.361,-3.712C-6.156,-3.86 -5.92,-4.01 -5.654,-4.165C-5.391,-4.319 -5.08,-4.46 -4.727,-4.585C-4.373,-4.71 -3.965,-4.813 -3.502,-4.893C-3.037,-4.975 -2.496,-5.016 -1.877,-5.016C-1.215,-5.016 -0.615,-4.923 -0.078,-4.739C0.461,-4.555 0.92,-4.298 1.303,-3.965C1.686,-3.635 1.98,-3.237 2.188,-2.774C2.393,-2.309 2.496,-1.805 2.496,-1.26L2.496,5.699L0.066,5.699L0,4.726Z" style="fill:rgb(35,31,32);fill-rule:nonzero;"/>
        </g>
        <g transform="matrix(1,0,0,1,270.164,143.484)">
            <path d="M0,-10.14L2.496,-10.14L2.563,-8.968C2.695,-9.115 2.854,-9.271 3.037,-9.433C3.221,-9.595 3.443,-9.745 3.701,-9.886C3.957,-10.025 4.248,-10.14 4.572,-10.228C4.896,-10.316 5.266,-10.361 5.678,-10.361C6.973,-10.361 7.959,-9.974 8.637,-9.201C9.314,-8.427 9.654,-7.386 9.654,-6.074L9.654,0.221L7.047,0.221L7.047,-6.052C7.047,-6.714 6.867,-7.226 6.506,-7.587C6.145,-7.949 5.678,-8.128 5.104,-8.128C4.75,-8.128 4.418,-8.058 4.109,-7.919C3.799,-7.779 3.535,-7.583 3.314,-7.333C3.092,-7.083 2.92,-6.792 2.795,-6.46C2.67,-6.13 2.607,-5.773 2.607,-5.39L2.607,0.221L0,0.221L0,-10.14Z" style="fill:rgb(35,31,32);fill-rule:nonzero;"/>
        </g>
        <g transform="matrix(1,0,0,1,283.396,136.304)">
            <path d="M0,4.44C0.324,4.764 0.732,5.034 1.227,5.247C1.719,5.461 2.283,5.567 2.916,5.567C3.475,5.567 3.924,5.495 4.264,5.346C4.602,5.2 4.771,4.956 4.771,4.618C4.771,4.471 4.742,4.335 4.684,4.21C4.625,4.085 4.498,3.961 4.307,3.844C4.115,3.727 3.852,3.608 3.512,3.491C3.174,3.374 2.717,3.249 2.143,3.116C1.789,3.028 1.42,2.909 1.039,2.762C0.654,2.616 0.299,2.413 -0.033,2.155C-0.365,1.897 -0.637,1.588 -0.852,1.227C-1.064,0.866 -1.172,0.434 -1.172,-0.066C-1.172,-0.581 -1.047,-1.04 -0.795,-1.447C-0.545,-1.851 -0.217,-2.191 0.188,-2.462C0.592,-2.736 1.049,-2.945 1.557,-3.091C2.064,-3.24 2.576,-3.314 3.092,-3.314C4.006,-3.314 4.783,-3.216 5.424,-3.027C6.064,-2.833 6.641,-2.546 7.158,-2.164L5.811,-0.331C5.529,-0.537 5.162,-0.724 4.705,-0.894C4.248,-1.064 3.711,-1.148 3.092,-1.148C2.475,-1.148 2.043,-1.056 1.801,-0.873C1.557,-0.687 1.436,-0.464 1.436,-0.199C1.436,0.126 1.639,0.379 2.043,0.563C2.447,0.749 3.078,0.944 3.932,1.149C4.463,1.268 4.938,1.415 5.357,1.59C5.777,1.768 6.137,1.989 6.439,2.254C6.74,2.518 6.973,2.833 7.135,3.192C7.297,3.553 7.379,3.985 7.379,4.485C7.379,4.985 7.26,5.438 7.025,5.844C6.789,6.249 6.469,6.59 6.064,6.872C5.658,7.151 5.188,7.368 4.65,7.522C4.111,7.676 3.541,7.754 2.938,7.754C1.967,7.754 1.09,7.618 0.309,7.346C-0.471,7.073 -1.098,6.672 -1.568,6.141L0,4.44Z" style="fill:rgb(35,31,32);fill-rule:nonzero;"/>
        </g>
        <g transform="matrix(1,0,0,1,213.656,166.018)">
            <path d="M0,-15.133L2.783,-15.133L2.783,-6.319C2.783,-5.76 2.84,-5.254 2.949,-4.805C3.061,-4.356 3.24,-3.973 3.49,-3.656C3.74,-3.34 4.072,-3.098 4.484,-2.928C4.896,-2.758 5.404,-2.674 6.01,-2.674C6.613,-2.674 7.121,-2.758 7.533,-2.928C7.945,-3.098 8.277,-3.34 8.527,-3.656C8.777,-3.973 8.959,-4.356 9.068,-4.805C9.18,-5.254 9.234,-5.76 9.234,-6.319L9.234,-15.133L12.018,-15.133L12.018,-5.832C12.018,-5.008 11.885,-4.242 11.619,-3.535C11.355,-2.828 10.965,-2.213 10.449,-1.692C9.934,-1.168 9.305,-0.756 8.561,-0.453C7.816,-0.153 6.967,0 6.01,0C5.051,0 4.201,-0.153 3.457,-0.453C2.713,-0.756 2.084,-1.168 1.568,-1.692C1.053,-2.213 0.662,-2.828 0.398,-3.535C0.133,-4.242 0,-5.008 0,-5.832L0,-15.133Z" style="fill:rgb(35,31,32);fill-rule:nonzero;"/>
        </g>
        <g transform="matrix(1,0,0,1,228.39,165.398)">
            <path d="M0,-10.14L2.496,-10.14L2.563,-8.968C2.695,-9.115 2.854,-9.271 3.037,-9.433C3.221,-9.595 3.443,-9.745 3.701,-9.886C3.957,-10.025 4.248,-10.14 4.572,-10.228C4.896,-10.316 5.266,-10.361 5.678,-10.361C6.973,-10.361 7.959,-9.974 8.637,-9.201C9.314,-8.427 9.654,-7.386 9.654,-6.074L9.654,0.221L7.047,0.221L7.047,-6.052C7.047,-6.714 6.867,-7.226 6.506,-7.587C6.145,-7.949 5.678,-8.128 5.104,-8.128C4.75,-8.128 4.418,-8.058 4.109,-7.919C3.799,-7.779 3.535,-7.583 3.314,-7.333C3.092,-7.083 2.92,-6.792 2.795,-6.46C2.67,-6.13 2.607,-5.773 2.607,-5.39L2.607,0.221L0,0.221L0,-10.14Z" style="fill:rgb(35,31,32);fill-rule:nonzero;"/>
        </g>
        <g transform="matrix(1,0,0,1,0,72.724)">
            <path d="M240.673,82.534L243.278,82.534L243.278,92.895L240.673,92.895L240.673,82.534ZM240.583,78.161L243.366,78.161L243.366,80.899L240.583,80.899L240.583,78.161Z" style="fill:rgb(35,31,32);fill-rule:nonzero;"/>
        </g>
        <g transform="matrix(1,0,0,1,244.783,165.619)">
            <path d="M0,-10.361L3.004,-10.361L5.787,-2.937L8.57,-10.361L11.42,-10.361L7.047,0L4.395,0L0,-10.361Z" style="fill:rgb(35,31,32);fill-rule:nonzero;"/>
        </g>
        <g transform="matrix(1,0,0,1,264.353,161.532)">
            <path d="M0,-2.186C0,-2.452 -0.051,-2.717 -0.154,-2.981C-0.258,-3.247 -0.408,-3.487 -0.607,-3.7C-0.807,-3.913 -1.061,-4.09 -1.369,-4.229C-1.678,-4.37 -2.031,-4.44 -2.43,-4.44C-2.857,-4.44 -3.236,-4.37 -3.566,-4.229C-3.898,-4.09 -4.174,-3.913 -4.396,-3.7C-4.617,-3.487 -4.785,-3.247 -4.904,-2.981C-5.021,-2.717 -5.08,-2.452 -5.08,-2.186L0,-2.186ZM2.541,2.585L2.176,2.951C1.979,3.148 1.689,3.359 1.314,3.58C0.939,3.8 0.461,4 -0.121,4.175C-0.703,4.353 -1.398,4.441 -2.209,4.441C-3.033,4.441 -3.785,4.3 -4.461,4.021C-5.139,3.742 -5.717,3.355 -6.195,2.861C-6.674,2.369 -7.043,1.775 -7.301,1.084C-7.559,0.39 -7.688,-0.375 -7.688,-1.215C-7.688,-1.979 -7.559,-2.69 -7.301,-3.346C-7.043,-4 -6.682,-4.573 -6.219,-5.059C-5.754,-5.543 -5.201,-5.926 -4.561,-6.207C-3.92,-6.487 -3.211,-6.627 -2.43,-6.627C-1.486,-6.627 -0.688,-6.454 -0.033,-6.108C0.623,-5.762 1.148,-5.309 1.547,-4.749C1.945,-4.19 2.232,-3.555 2.408,-2.848C2.586,-2.143 2.674,-1.42 2.674,-0.684L2.674,-0.309L-5.059,-0.309C-5.059,0.074 -4.975,0.419 -4.805,0.73C-4.635,1.039 -4.414,1.304 -4.141,1.525C-3.869,1.746 -3.561,1.916 -3.213,2.033C-2.867,2.152 -2.525,2.21 -2.188,2.21C-1.686,2.21 -1.248,2.162 -0.873,2.066C-0.496,1.97 -0.176,1.861 0.088,1.734C0.354,1.609 0.57,1.478 0.74,1.337C0.91,1.197 1.039,1.084 1.127,0.996L2.541,2.585Z" style="fill:rgb(35,31,32);fill-rule:nonzero;"/>
        </g>
        <g transform="matrix(1,0,0,1,269.037,165.422)">
            <path d="M0,-10.164L2.496,-10.164L2.563,-8.859C2.68,-9.008 2.832,-9.17 3.016,-9.346C3.199,-9.523 3.416,-9.685 3.668,-9.832C3.918,-9.978 4.209,-10.103 4.539,-10.207C4.871,-10.31 5.25,-10.361 5.678,-10.361C5.928,-10.361 6.152,-10.348 6.352,-10.318C6.551,-10.289 6.752,-10.236 6.959,-10.164L6.428,-7.711C6.252,-7.785 6.07,-7.836 5.887,-7.865C5.703,-7.894 5.486,-7.91 5.236,-7.91C4.883,-7.91 4.543,-7.851 4.219,-7.732C3.895,-7.615 3.615,-7.445 3.381,-7.225C3.145,-7.004 2.957,-6.738 2.816,-6.43C2.676,-6.121 2.607,-5.775 2.607,-5.393L2.607,0.197L0,0.197L0,-10.164Z" style="fill:rgb(35,31,32);fill-rule:nonzero;"/>
        </g>
        <g transform="matrix(1,0,0,1,278.005,158.218)">
            <path d="M0,4.44C0.324,4.764 0.732,5.034 1.227,5.247C1.719,5.461 2.283,5.567 2.916,5.567C3.475,5.567 3.924,5.495 4.264,5.346C4.602,5.2 4.771,4.956 4.771,4.618C4.771,4.471 4.742,4.335 4.684,4.21C4.625,4.085 4.498,3.961 4.307,3.844C4.115,3.727 3.852,3.608 3.512,3.491C3.174,3.374 2.717,3.249 2.143,3.116C1.789,3.028 1.42,2.909 1.039,2.762C0.654,2.616 0.299,2.413 -0.033,2.155C-0.365,1.897 -0.637,1.588 -0.852,1.227C-1.064,0.866 -1.172,0.434 -1.172,-0.066C-1.172,-0.581 -1.047,-1.04 -0.795,-1.447C-0.545,-1.851 -0.217,-2.191 0.188,-2.462C0.592,-2.736 1.049,-2.945 1.557,-3.091C2.064,-3.24 2.576,-3.314 3.092,-3.314C4.006,-3.314 4.783,-3.216 5.424,-3.027C6.064,-2.833 6.641,-2.546 7.158,-2.164L5.811,-0.331C5.529,-0.537 5.162,-0.724 4.705,-0.894C4.248,-1.064 3.711,-1.148 3.092,-1.148C2.475,-1.148 2.043,-1.056 1.801,-0.873C1.557,-0.687 1.436,-0.464 1.436,-0.199C1.436,0.126 1.639,0.379 2.043,0.563C2.447,0.749 3.078,0.944 3.932,1.149C4.463,1.268 4.938,1.415 5.357,1.59C5.777,1.768 6.137,1.989 6.439,2.254C6.74,2.518 6.973,2.833 7.135,3.192C7.297,3.553 7.379,3.985 7.379,4.485C7.379,4.985 7.26,5.438 7.025,5.844C6.789,6.249 6.469,6.59 6.064,6.872C5.658,7.151 5.188,7.368 4.65,7.522C4.111,7.676 3.541,7.754 2.938,7.754C1.967,7.754 1.09,7.618 0.309,7.346C-0.471,7.073 -1.098,6.672 -1.568,6.141L0,4.44Z" style="fill:rgb(35,31,32);fill-rule:nonzero;"/>
        </g>
        <g transform="matrix(1,0,0,1,0,72.724)">
            <path d="M287.617,82.534L290.222,82.534L290.222,92.895L287.617,92.895L287.617,82.534ZM287.527,78.161L290.31,78.161L290.31,80.899L287.527,80.899L287.527,78.161Z" style="fill:rgb(35,31,32);fill-rule:nonzero;"/>
        </g>
        <g transform="matrix(1,0,0,1,293.777,160.472)">
            <path d="M0,-3.093L-1.766,-3.093L-1.766,-5.214L0,-5.214L0,-8.572L2.607,-8.572L2.607,-5.214L5.391,-5.214L5.391,-3.093L2.607,-3.093L2.607,1.436C2.607,2.026 2.707,2.477 2.906,2.794C3.105,3.112 3.426,3.27 3.867,3.27C4.279,3.27 4.607,3.212 4.85,3.093C5.092,2.975 5.324,2.835 5.545,2.673L6.65,4.286C6.135,4.714 5.627,5.018 5.125,5.202C4.625,5.386 4.066,5.479 3.447,5.479C2.814,5.479 2.275,5.386 1.834,5.202C1.393,5.018 1.035,4.757 0.764,4.419C0.49,4.079 0.295,3.671 0.178,3.192C0.059,2.714 0,2.186 0,1.612L0,-3.093Z" style="fill:rgb(35,31,32);fill-rule:nonzero;"/>
        </g>
        <g transform="matrix(1,0,0,1,306.105,165.973)">
            <path d="M0,-15.42L2.783,-15.42L1.037,-12.283L-1.061,-12.283L0,-15.42ZM2.451,-6.627C2.451,-6.893 2.4,-7.158 2.297,-7.422C2.193,-7.688 2.043,-7.928 1.844,-8.141C1.645,-8.354 1.391,-8.531 1.082,-8.67C0.773,-8.811 0.42,-8.881 0.021,-8.881C-0.406,-8.881 -0.785,-8.811 -1.115,-8.67C-1.447,-8.531 -1.723,-8.354 -1.945,-8.141C-2.166,-7.928 -2.334,-7.688 -2.453,-7.422C-2.57,-7.158 -2.629,-6.893 -2.629,-6.627L2.451,-6.627ZM4.992,-1.856L4.627,-1.49C4.43,-1.293 4.141,-1.082 3.766,-0.861C3.391,-0.641 2.912,-0.441 2.33,-0.266C1.748,-0.088 1.053,0 0.242,0C-0.582,0 -1.334,-0.141 -2.01,-0.42C-2.688,-0.699 -3.266,-1.086 -3.744,-1.58C-4.223,-2.072 -4.592,-2.666 -4.85,-3.357C-5.107,-4.051 -5.236,-4.816 -5.236,-5.656C-5.236,-6.42 -5.107,-7.131 -4.85,-7.787C-4.592,-8.441 -4.23,-9.014 -3.768,-9.5C-3.303,-9.984 -2.75,-10.367 -2.109,-10.649C-1.469,-10.928 -0.76,-11.068 0.021,-11.068C0.965,-11.068 1.764,-10.895 2.418,-10.549C3.074,-10.203 3.6,-9.75 3.998,-9.19C4.396,-8.631 4.684,-7.996 4.859,-7.289C5.037,-6.584 5.125,-5.861 5.125,-5.125L5.125,-4.75L-2.607,-4.75C-2.607,-4.367 -2.523,-4.022 -2.354,-3.711C-2.184,-3.402 -1.963,-3.137 -1.689,-2.916C-1.418,-2.695 -1.109,-2.525 -0.762,-2.408C-0.416,-2.289 -0.074,-2.231 0.264,-2.231C0.766,-2.231 1.203,-2.279 1.578,-2.375C1.955,-2.471 2.275,-2.58 2.539,-2.707C2.805,-2.832 3.021,-2.963 3.191,-3.104C3.361,-3.244 3.49,-3.357 3.578,-3.445L4.992,-1.856Z" style="fill:rgb(35,31,32);fill-rule:nonzero;"/>
        </g>
    </g>
</svg>
